<svg xmlns="http://www.w3.org/2000/svg" xmlns:xlink="http://www.w3.org/1999/xlink" width="20" height="20" viewBox="0 0 20 20"><defs><style>.a{fill:#00dbd0;}.b{clip-path:url(#a);}</style><clipPath id="a"><rect class="a" width="20" height="20" transform="translate(0 -0.264)"/></clipPath></defs><g transform="translate(-491.214 -191.95)"><g transform="translate(491.214 192.214)"><g class="b" transform="translate(0)"><path class="a" d="M506.931,211.9a.622.622,0,0,1-.252-.053l-5.74-2.556-5.74,2.556a.622.622,0,0,1-.862-.691l1.266-6.342-4.426-4.433a.623.623,0,0,1,.317-1.05l6.343-1.271,2.533-5.708a.647.647,0,0,1,1.136,0l2.533,5.708,6.343,1.271a.623.623,0,0,1,.317,1.05l-4.426,4.433,1.266,6.342a.622.622,0,0,1-.609.745Zm-5.992-3.913a.619.619,0,0,1,.252.053l4.9,2.18-1.1-5.49a.623.623,0,0,1,.17-.562l3.84-3.846-5.52-1.106a.622.622,0,0,1-.446-.357l-2.1-4.723-2.1,4.723a.621.621,0,0,1-.446.357l-5.52,1.106,3.84,3.846a.624.624,0,0,1,.17.562l-1.1,5.49,4.9-2.18a.619.619,0,0,1,.253-.053Zm0,0" transform="translate(-491.146 -192.162)"/></g></g></g></svg>